HIERARCHY
ROOT Hips
{
	OFFSET -0.001795 -0.223333 0.028219
	CHANNELS 6 Xposition Yposition Zposition Zrotation Yrotation Xrotation 
	JOINT LeftUpLeg
	{
		OFFSET 0.069520 -0.091406 -0.006815
		CHANNELS 3 Zrotation Yrotation Xrotation
		JOINT LeftLeg
		{
			OFFSET 0.034277 -0.375199 -0.004496
			CHANNELS 3 Zrotation Yrotation Xrotation
			JOINT LeftFoot
			{
				OFFSET -0.013596 -0.397961 -0.043693
				CHANNELS 3 Zrotation Yrotation Xrotation
				JOINT LeftToe
				{
					OFFSET 0.026358 -0.055791 0.119288
					CHANNELS 3 Zrotation Yrotation Xrotation
					End Site
					{
						OFFSET 0.000000 0.000000 0.000000
					}
				}
			}
		}
	}
	JOINT RightUpLeg
	{
		OFFSET -0.067670 -0.090522 -0.004320
		CHANNELS 3 Zrotation Yrotation Xrotation
		JOINT RightLeg
		{
			OFFSET -0.038290 -0.382569 -0.008850
			CHANNELS 3 Zrotation Yrotation Xrotation
			JOINT RightFoot
			{
				OFFSET 0.015774 -0.398415 -0.042312
				CHANNELS 3 Zrotation Yrotation Xrotation
				JOINT RightToe
				{
					OFFSET -0.025372 -0.048144 0.123348
					CHANNELS 3 Zrotation Yrotation Xrotation
					End Site
					{
						OFFSET 0.000000 0.000000 0.000000
					}
				}
			}
		}
	}
	JOINT Spine
	{
		OFFSET -0.002533 0.108963 -0.026696
		CHANNELS 3 Zrotation Yrotation Xrotation
		JOINT Spine1
		{
			OFFSET 0.005487 0.135180 0.001092
			CHANNELS 3 Zrotation Yrotation Xrotation
			JOINT Spine2
			{
				OFFSET 0.001457 0.052922 0.025425
				CHANNELS 3 Zrotation Yrotation Xrotation
				JOINT Neck
				{
					OFFSET -0.002778 0.213870 -0.042857
					CHANNELS 3 Zrotation Yrotation Xrotation
					JOINT Head
					{
						OFFSET 0.005152 0.064970 0.051349
						CHANNELS 3 Zrotation Yrotation Xrotation
						End Site
						{
							OFFSET 0.000000 0.000000 0.000000
						}
					}
				}
				JOINT LeftShoulder
				{
					OFFSET 0.078845 0.121749 -0.034090
					CHANNELS 3 Zrotation Yrotation Xrotation
					JOINT LeftArm
					{
						OFFSET 0.090977 0.030469 -0.008868
						CHANNELS 3 Zrotation Yrotation Xrotation
						JOINT LeftForeArm
						{
							OFFSET 0.259612 -0.012772 -0.027456
							CHANNELS 3 Zrotation Yrotation Xrotation
							JOINT LeftHand
							{
								OFFSET 0.249234 0.008986 -0.001171
								CHANNELS 3 Zrotation Yrotation Xrotation
								End Site
								{
									OFFSET 0.000000 0.000000 0.000000
								}
							}
						}
					}
				}
				JOINT RightShoulder
				{
					OFFSET -0.081759 0.118833 -0.038615
					CHANNELS 3 Zrotation Yrotation Xrotation
					JOINT RightArm
					{
						OFFSET -0.096012 0.032551 -0.009143
						CHANNELS 3 Zrotation Yrotation Xrotation
						JOINT RightForeArm
						{
							OFFSET -0.253742 -0.013329 -0.021401
							CHANNELS 3 Zrotation Yrotation Xrotation
							JOINT RightHand
							{
								OFFSET -0.255298 0.007772 -0.005559
								CHANNELS 3 Zrotation Yrotation Xrotation
								End Site
								{
									OFFSET 0.000000 0.000000 0.000000
								}
							}
						}
					}
				}
			}
		}
	}
}
MOTION
Frames: 6
Frame Time: 0.050000
0.000000 0.938818 0.000000 0.181597 -0.805987 4.947486 0.892110 -0.267271 -2.937803 -2.216561 0.291661 -3.399826 2.654086 6.951996 4.370211 0.000000 0.000000 0.000000 -1.780131 0.402483 -3.986671 -0.185934 -0.020497 -0.956746 1.044133 0.809858 3.314004 0.000000 0.000000 0.000000 6.864559 0.268093 -4.345279 -1.806278 0.855219 0.122398 -3.948523 1.851833 7.169672 7.588340 -3.563646 -14.528828 0.000000 0.000000 0.000000 -22.710681 -9.061033 2.461103 -52.962988 -10.616161 -1.709443 -153.710134 -72.594239 149.975479 0.000000 0.000000 0.000000 17.914996 1.337565 -0.385429 61.374671 9.979889 -1.011953 121.702208 72.284438 111.346819 0.000000 0.000000 0.000000 
-0.001572 0.937560 0.000311 -0.204530 0.018196 5.556093 1.871124 -0.298511 -3.333954 -3.121025 0.362660 -4.241622 2.366842 6.495124 4.561219 0.000000 0.000000 0.000000 -1.248550 0.410632 -4.070206 0.158892 -0.074269 -1.515676 0.348193 -0.289193 2.273777 0.000000 0.000000 0.000000 7.860322 0.283057 -4.585740 -1.719367 0.799648 1.359914 -5.201965 0.635821 5.243194 8.056203 -3.904913 -14.132117 0.000000 0.000000 0.000000 -23.352242 -8.080245 1.941419 -51.984612 -10.437632 -1.599224 -151.320949 -72.828396 146.943895 0.000000 0.000000 0.000000 17.256304 -0.319412 -1.397411 62.954916 8.098615 -1.778837 120.709572 68.034416 104.999936 0.000000 0.000000 0.000000 
-0.003150 0.937814 0.000192 0.415734 -0.023911 5.253377 1.876213 -0.303694 -3.421734 -3.255724 0.365410 -2.858403 2.100724 5.846523 4.103714 0.000000 0.000000 0.000000 -1.661443 0.399383 -3.951881 -0.071188 -0.043590 -1.269486 -0.164923 -1.750844 2.745788 0.000000 0.000000 0.000000 7.671760 0.235832 -4.083076 -1.681395 0.800862 -0.755385 -5.703831 0.536455 7.105649 7.073908 -3.213466 -15.009554 0.000000 0.000000 0.000000 -23.176530 -7.767109 1.883811 -51.574112 -10.961380 -1.567216 -149.767103 -72.776012 145.236099 0.000000 0.000000 0.000000 19.196683 0.666658 -0.991832 61.668090 8.404483 -1.833527 116.558900 68.748476 101.138513 0.000000 0.000000 0.000000 
-0.004826 0.937325 -0.000281 0.539417 0.899336 5.116399 2.037929 -0.325400 -3.713702 -3.289764 0.361645 -2.858246 1.401279 4.714840 4.592749 0.000000 0.000000 0.000000 -1.479919 0.395668 -3.929721 0.047173 -0.046420 -1.063605 -0.393666 -1.726724 1.534578 0.000000 0.000000 0.000000 7.826071 0.245167 -4.190074 -1.348452 0.628355 0.471972 -6.202414 -0.294642 6.185059 6.784496 -3.133077 -14.261700 0.000000 0.000000 0.000000 -23.671032 -8.094720 2.081294 -51.743621 -10.717894 -1.585434 -150.477416 -72.882733 146.194217 0.000000 0.000000 0.000000 18.747005 0.444414 -1.158603 62.674245 8.441744 -1.706156 115.844433 68.212646 99.451971 0.000000 0.000000 0.000000 
-0.006497 0.937839 -0.000982 0.713894 0.988807 4.757786 1.673642 -0.313812 -3.553965 -2.692047 0.308849 -2.384355 1.224932 4.214132 4.117833 0.000000 0.000000 0.000000 -1.464967 0.355373 -3.487244 -0.120559 -0.040267 -1.311716 -0.429915 -1.897487 1.721162 0.000000 0.000000 0.000000 7.783681 0.197400 -3.661627 -1.340627 0.628872 0.236038 -6.213280 -0.403114 6.617103 6.521460 -2.999797 -14.177670 0.000000 0.000000 0.000000 -23.516477 -8.913451 2.616056 -51.185876 -11.301817 -1.376893 -148.587375 -74.733391 144.972483 0.000000 0.000000 0.000000 18.282885 0.523394 -1.084307 62.705332 9.084663 -1.404558 110.572151 68.058895 93.385416 0.000000 0.000000 0.000000 
-0.008034 0.938309 -0.001837 0.677377 1.137124 4.561018 1.800859 -0.309538 -3.514197 -2.725582 0.313477 -2.619857 0.799816 3.516692 4.419059 0.000000 0.000000 0.000000 -1.392713 0.351676 -3.456571 -0.171635 -0.032382 -1.239270 -0.585899 -2.350301 1.894895 0.000000 0.000000 0.000000 7.832621 0.171260 -3.379209 -1.292831 0.602877 0.432421 -6.161835 -0.567266 6.633551 5.956231 -2.622506 -14.359938 0.000000 0.000000 0.000000 -23.375878 -8.890030 2.637309 -51.401463 -11.921795 -1.126408 -140.050248 -76.489922 135.690111 0.000000 0.000000 0.000000 18.257613 1.053715 -0.820124 62.775415 9.292200 -1.294784 108.300201 68.654873 91.502973 0.000000 0.000000 0.000000 
